inDegrees=yes
name=ik_S46_A13_T01
DataType=double
version=3
OpenSimVersion=4.3-2021-08-27-4bc7ad9
endheader
time	pelvis_tilt	pelvis_list	pelvis_rotation	pelvis_tx	pelvis_ty	pelvis_tz	hip_flexion_r	hip_adduction_r	hip_rotation_r	knee_angle_r	knee_angle_r_beta	ankle_angle_r	subtalar_angle_r	mtp_angle_r	hip_flexion_l	hip_adduction_l	hip_rotation_l	knee_angle_l	knee_angle_l_beta	ankle_angle_l	subtalar_angle_l	mtp_angle_l	lumbar_extension	lumbar_bending	lumbar_rotation	arm_flex_r	arm_add_r	arm_rot_r	elbow_flex_r	pro_sup_r	wrist_flex_r	wrist_dev_r	arm_flex_l	arm_add_l	arm_rot_l	elbow_flex_l	pro_sup_l	wrist_flex_l	wrist_dev_l
2.700000000000002	-0.700510748892042	-0.4912486669176526	19.26531492047078	0	0.9399999999999999	0	22.01737733643102	-7.883967029168075	-6.7543812876008	26.23389512268849	0.4578678455137959	0	0	0	22.01737733643102	-7.883967029168075	-6.7543812876008	26.23389512268849	0.4578678455137959	0	0	0	0.5330060720217591	0.8145579953795254	16.22973963706972	21.54737581123104	-46.45455932690645	1.84509679013718	98.30919546890189	104.9042091619058	0	0	101.9853527204821	1.82611373336035	21.24705674860129	4.39591970265501	95.3592377035596	0	0
2.720000000000002	-0.7005223146727616	-0.4750067304812319	19.10558290674941	0	0.9399999999999999	0	22.03182969180399	-7.888187242551316	-6.758542377521445	26.24754142433424	0.4581060184082347	0	0	0	22.03182969180399	-7.888187242551316	-6.758542377521445	26.24754142433424	0.4581060184082347	0	0	0	0.5391781953504751	0.8309828365798868	16.27866725591684	20.48545471136833	-46.32857124818826	0.9151144866207274	98.41545353623214	104.2628142012793	0	0	101.6266588589702	1.343580067853439	21.39262155526659	4.905038938500029	95.20090190751742	0	0
2.740000000000002	-0.6748218595914526	-0.4635183662503565	19.15154144848025	0	0.9399999999999999	0	22.04437558961066	-7.891816788806581	-6.762135166975936	26.25947257460713	0.4583142562640467	0	0	0	22.04437558961066	-7.891816788806581	-6.762135166975936	26.25947257460713	0.4583142562640467	0	0	0	0.5646397450543186	0.8320438737441935	16.16594616907591	20.4780625318558	-46.27391684043712	0.910581848144476	98.37553075468985	102.9447285236691	0	0	101.1516548736692	1.051000945080995	21.37881878663849	5.704145405244741	97.21274097829932	0	0
2.760000000000002	-0.6789095298661318	-0.4522003092261152	18.87638359284583	0	0.9399999999999999	0	22.06390574607217	-7.897520407127232	-6.767761084502962	26.27787243038954	0.458635394329342	0	0	0	22.06390574607217	-7.897520407127232	-6.767761084502962	26.27787243038954	0.458635394329342	0	0	0	0.5654931948312589	0.845814646600107	16.32429211578428	19.84596636226248	-46.69066107221096	-0.7038121024399722	99.51988519763557	100.8625618147279	0	0	100.6930283351457	0.6910937230227699	21.22756279574267	6.379108396396986	98.1183686279834	0	0
2.780000000000002	-0.6619780747486803	-0.4331997338594057	18.657872639016	0	0.9399999999999999	0	22.08077346978652	-7.902393942125074	-6.772589942646659	26.29389643432781	0.4589150659574173	0	0	0	22.08077346978652	-7.902393942125074	-6.772589942646659	26.29389643432781	0.4589150659574173	0	0	0	0.5896282087537642	0.8570287011642966	16.44076956203307	20.20199078378219	-47.16590628718441	-0.994803322567067	100.415808449779	98.57827409947411	0	0	100.1320532896745	0.4310352212844827	21.04862136248005	7.108639825763747	99.10912878065587	0	0
2.800000000000002	-0.6457593578938015	-0.4429755769275065	18.65218885891488	0	0.9399999999999999	0	22.10530825308339	-7.909461628265396	-6.779606046322634	26.31718731734816	0.4593215685518192	0	0	0	22.10530825308339	-7.909461628265396	-6.779606046322634	26.31718731734816	0.4593215685518192	0	0	0	0.6008238234917814	0.8417839826216499	16.40452829678853	20.79486257203767	-47.60665559587997	-0.9339746312980171	100.8681229788235	97.19890824660074	0	0	99.59022597932658	0.2101085176288455	20.90447446051655	7.926704758581956	100.0734798011856	0	0
2.820000000000002	-0.6239491450906597	-0.4391175190315301	18.78626149633126	0	0.9399999999999999	0	22.12133387539097	-7.914095896343526	-6.784199135345917	26.33235290694873	0.4595862580233553	0	0	0	22.12133387539097	-7.914095896343526	-6.784199135345917	26.33235290694873	0.4595862580233553	0	0	0	0.6214087484977929	0.8390900980323298	16.22741430759141	22.69653947718433	-48.5030272355419	-0.09664055092833083	101.5969095160934	94.57923228015676	0	0	99.00895422445215	-0.005109520480530917	20.66372323570906	8.800537563373153	101.1702048037255	0	0
2.840000000000002	-0.5862083337085578	-0.4560045191583442	19.06538861349849	0	0.9399999999999999	0	22.1372265399229	-7.918675526757389	-6.788745542369142	26.3474219022903	0.4598492616070334	0	0	0	22.1372265399229	-7.918675526757389	-6.788745542369142	26.3474219022903	0.4598492616070334	0	0	0	0.6496329740117236	0.8129060572770894	15.90271646199647	24.04177912890492	-49.00327482717339	0.3987915827828156	104.0206948620653	91.41635596725749	0	0	98.36447967035407	-0.2290033894255049	20.40015456809351	9.848398142831538	102.2451881647471	0	0
2.860000000000002	-0.5608605758875984	-0.4648366714079854	19.24267176533725	0	0.9399999999999999	0	22.15194441417718	-7.922933615165618	-6.792967023686405	26.36131187375074	0.4600916873420262	0	0	0	22.15194441417718	-7.922933615165618	-6.792967023686405	26.36131187375074	0.4600916873420262	0	0	0	0.6675233561969677	0.7939167054535998	15.75470114066718	25.4261654810007	-49.41558872646517	1.262213785998293	104.1770002751307	90.01395904671502	0	0	97.79653997030198	-0.5257275446058652	20.0579290623364	10.4836622405232	102.6123950030118	0	0
2.880000000000002	-0.5312799153510325	-0.4784658507801113	19.37688036560008	0	0.9399999999999999	0	22.16682938512595	-7.927183477635774	-6.797203350791004	26.37551109005627	0.4603395104177606	0	0	0	22.16682938512595	-7.927183477635774	-6.797203350791004	26.37551109005627	0.4603395104177606	0	0	0	0.688448178388639	0.7688411130660537	15.58083077706441	25.51106764930157	-49.40133333113134	1.143225813969901	105.5574135998135	88.4733434733045	0	0	97.11719829902223	-0.7005742407134731	19.87722725062231	11.57619241317021	103.441169438577	0	0
2.900000000000002	-0.4758682078526243	-0.5014431618646966	19.73098056258494	0	0.9399999999999999	0	22.18272360188038	-7.931730784320729	-6.801733614166548	26.39062758602906	0.4606033430438501	0	0	0	22.18272360188038	-7.931730784320729	-6.801733614166548	26.39062758602906	0.4606033430438501	0	0	0	0.7265266778305839	0.7333870268586157	15.22032995253809	27.07434310988599	-49.78619084232996	2.087426752670009	106.4567919329199	86.04036367520661	0	0	96.27145799791357	-0.7003206167959335	19.90039094547812	13.29581563939922	105.1857657919347	0	0
2.920000000000002	-0.4404686750353646	-0.5251267390198781	20.04238408326929	0	0.9399999999999999	0	22.19908795997288	-7.936429617662343	-6.806409280727858	26.4061223540894	0.4608737777633359	0	0	0	22.19908795997288	-7.936429617662343	-6.806409280727858	26.4061223540894	0.4608737777633359	0	0	0	0.7489734928571344	0.6985610213478961	14.92180804477142	28.72405271144727	-50.2074007966137	3.093093502653555	107.4106376925428	83.78024223754339	0	0	95.5171411685082	-0.7970855415847016	20.02872743093854	14.57759686370827	105.8751172531464	0	0
2.940000000000002	-0.4086297178557215	-0.5605431438307857	20.34750280400155	0	0.9399999999999999	0	22.21472063365393	-7.940914962624435	-6.810874918779715	26.42091699753964	0.4611319930032013	0	0	0	22.21472063365393	-7.940914962624435	-6.810874918779715	26.42091699753964	0.4611319930032013	0	0	0	0.7643110293937257	0.6535875077628577	14.68442354039543	30.36883002568366	-50.60648004437891	4.01835067161648	108.3326079805957	81.83782841331326	0	0	94.82934285735894	-0.8250800105189241	20.19465013180178	15.7840854561331	106.2419680320193	0	0
2.960000000000002	-0.3969237508814468	-0.5943926716410093	20.59018186129942	0	0.9399999999999999	0	22.23697158091183	-7.947305639717528	-6.817236656882753	26.44192952228837	0.4614987307442233	0	0	0	22.23697158091183	-7.947305639717528	-6.817236656882753	26.44192952228837	0.4614987307442233	0	0	0	0.7617703786096157	0.6162875257403191	14.46621055461133	32.23691814600152	-50.95617764285567	5.251083182772874	108.3515339199797	80.58749133142268	0	0	94.19229201432562	-0.8990055359876917	20.30282320882262	16.92619837151967	106.49702734077	0	0
2.980000000000002	-0.3610926547922859	-0.6552374915746894	20.94957960172892	0	0.9399999999999999	0	22.25270514901852	-7.951810936107464	-6.82172830527506	26.45680415564878	0.4617583420713895	0	0	0	22.25270514901852	-7.951810936107464	-6.82172830527506	26.45680415564878	0.4617583420713895	0	0	0	0.7725863855846382	0.5459536608853353	14.29881629045786	33.91894631521712	-51.37416872483008	6.079809808145894	109.2441922508968	78.84363362613344	0	0	93.52308096484502	-0.801805081462834	20.47211695254829	18.17892825899636	106.8853096403147	0	0
3.000000000000002	-0.3431428703842503	-0.7053872195151598	21.4161335631387	0	0.9399999999999999	0	22.27529061320586	-7.958283567504859	-6.82818114471142	26.4781104853013	0.4621302076753414	0	0	0	22.27529061320586	-7.958283567504859	-6.82818114471142	26.4781104853013	0.4621302076753414	0	0	0	0.769789161672308	0.4891788813223337	13.96519795185743	38.1741190077154	-52.0632194085017	8.955039886156191	109.0203939382874	76.26885411198353	0	0	92.88339129385584	-0.7432068269603292	20.5320833130131	19.36882895131954	107.1643589257038	0	0
3.020000000000002	-0.3249032575144722	-0.7498967116166269	21.72283663125337	0	0.9399999999999999	0	22.29654552596443	-7.964362389760357	-6.834248307521771	26.49816613189243	0.462480244741973	0	0	0	22.29654552596443	-7.964362389760357	-6.834248307521771	26.49816613189243	0.462480244741973	0	0	0	0.7667063650408193	0.4388073714317583	13.80225167199943	40.36246072007226	-52.3555749542646	10.32910105920935	109.5470701992325	74.60634478441881	0	0	92.33426660831009	-0.6145043761766181	20.39048238953619	20.4456644629372	106.9899801968964	0	0
3.040000000000002	-0.3032041636990261	-0.7899862596648992	22.02199513272388	0	0.9399999999999999	0	22.31343114342701	-7.969185423256093	-6.839065945860292	26.51409451410974	0.462758247456181	0	0	0	22.31343114342701	-7.969185423256093	-6.839065945860292	26.51409451410974	0.462758247456181	0	0	0	0.7712052987093659	0.3916890594462866	13.67624412538244	42.58035143634014	-52.57899956500451	11.75935668501201	109.9646066418727	73.125634767176	0	0	91.97509202477455	-0.5059465016101752	20.06211280510404	20.74364761090899	107.4248508150949	0	0
3.060000000000002	-0.264042096020061	-0.8401723306772461	22.35794272663006	0	0.9399999999999999	0	22.33043190726261	-7.974030379579293	-6.843911077481216	26.53014345014295	0.4630383542314025	0	0	0	22.33043190726261	-7.974030379579293	-6.843911077481216	26.53014345014295	0.4630383542314025	0	0	0	0.7859675008078842	0.3294835129128755	13.51093383957376	44.86178603545888	-52.64725419387552	13.02926714264426	111.4956367925492	71.47628517616225	0	0	91.59913861002623	-0.2303187796986666	19.8435155784886	21.53015491390747	107.3552415743069	0	0
3.080000000000002	-0.2525112612074734	-0.8848755055563623	22.61091829220268	0	0.9399999999999999	0	22.35038472608545	-7.979709536069237	-6.849594928362007	26.54897297001968	0.4633669913498213	0	0	0	22.35038472608545	-7.979709536069237	-6.849594928362007	26.54897297001968	0.4633669913498213	0	0	0	0.7788429446017678	0.2850460573098381	13.37835892133937	47.48310108470103	-52.63442645980001	14.94913881838972	110.7182725859091	70.55961822098998	0	0	91.34402935358433	0.03999192629042649	19.57293416048849	22.21175572873215	107.2568761010774	0	0
3.100000000000002	-0.2601954840159827	-0.8957849652672224	22.53016356450241	0	0.9399999999999999	0	22.36205857672	-7.983003280848789	-6.85290346695859	26.56006510060006	0.46356058554951	0	0	0	22.36205857672	-7.983003280848789	-6.85290346695859	26.56006510060006	0.46356058554951	0	0	0	0.7686299776996884	0.2784792145881035	13.51644771806489	47.48847881860473	-52.63595193066318	14.69488185992168	111.8396523425268	70.15344413220816	0	0	91.08965538995736	0.3850182123851895	19.23711435794749	23.15913303855582	106.0110628341226	0	0
3.120000000000002	-0.225451402296951	-0.943165131642604	22.75731319469125	0	0.9399999999999999	0	22.38124548486773	-7.988450772805354	-6.858363394024448	26.57817133312475	0.4638765989221976	0	0	0	22.38124548486773	-7.988450772805354	-6.858363394024448	26.57817133312475	0.4638765989221976	0	0	0	0.7813292128830438	0.2235868268292644	13.39659623717118	50.08962269480744	-52.52733527462082	16.51833949524322	111.3814987278038	69.08747963290399	0	0	90.9701118087755	0.749405915257209	18.93023186817463	23.32442612135825	105.5113877431774	0	0
